<svg width="56" height="125" viewBox="0 0 56 125" fill="none" xmlns="http://www.w3.org/2000/svg">
<g clip-path="url(#clip0_40_621)">
<path d="M54.6099 15.02C54.6099 14.93 54.5899 14.85 54.5599 14.77C46.4699 -7.05998 6.58987 -3.74998 1.43987 18.51C-0.850133 28.42 -1.37013 41.29 7.19987 48.33C11.8199 52.13 17.3299 54.11 22.9599 54.37C22.7299 77.46 22.4899 100.55 22.2599 123.64C22.2399 125.5 31.8699 121.75 31.8999 119.14C32.1199 97.15 32.3499 75.15 32.5699 53.16C34.1499 52.68 35.6999 52.08 37.2099 51.32C50.6699 44.59 57.9099 29.87 54.6199 15.02H54.6099ZM10.8499 38.98C9.05987 35.97 8.00987 32.78 7.92987 29.25C7.83987 25.09 9.47987 21.19 9.46987 17.03C9.46987 14.44 19.0999 10.64 19.1099 12.53C19.1099 16.23 17.7399 19.67 17.5799 23.34C17.4099 27.03 18.5799 30.46 20.4399 33.59C21.5199 35.41 11.9699 40.87 10.8499 38.98ZM24.9899 42.59C23.8499 43.37 22.5199 44.06 21.2199 44.53C20.6999 44.72 19.2199 45.29 18.5799 44.99C17.6899 44.58 16.7999 44.17 15.9099 43.76C14.3499 43.04 17.7999 40.68 18.3699 40.29C19.5099 39.51 20.8399 38.82 22.1399 38.35C22.6599 38.16 24.1399 37.59 24.7799 37.89C25.6699 38.3 26.5599 38.71 27.4499 39.12C29.0099 39.84 25.5599 42.2 24.9899 42.59Z" fill="#77393C"/>
</g>
<defs>
<clipPath id="clip0_40_621">
<rect width="55.4" height="124.14" fill="white"/>
</clipPath>
</defs>
</svg>
